#!OML:ASF E:\Steps\Project 1\Capture day 1\Session 2\Subject.ASF
:FULLY-SPECIFIED
:DEGREES
389
root 8.79804 16.3037 8.95664 26.0554 5.02063 2.78485
lowerback -26.7078 -1.41121 -5.66396
upperback -2.47401 0.116714 -2.02899
thorax 12.1218 -0.165865 0.997026
lowerneck -0.332982 -4.61833 -0.782614
upperneck -13.6888 -5.68934 5.05523
head -4.2636 -2.99809 2.03502
rclavicle -7.25564e-015 1.98785e-014
rhumerus -34.9409 -35.7606 -69.684
rradius 14.2404
rwrist 25.6186
rhand -9.50183 -52.7317
rfingers 7.12502
rthumb 16.4633 -442.053
lclavicle -7.25564e-015 1.98785e-014
lhumerus -25.9543 1.6366 85.8299
lradius 28.3001
lwrist 0.191581
lhand -25.7601 -14.7842
lfingers 7.12502
lthumb 0.777479 15.1941
rfemur -25.3798 6.31251 18.3471
rtibia 15.7145
rfoot -23.0198 -15.325
rtoes -39.3538
lfemur -28.0451 -12.1178 -17.0738
ltibia 12.8459
lfoot -8.00876 -2.17675
ltoes -23.1515
390
root 8.80449 16.3101 8.95312 25.947 4.88303 3.05375
lowerback -26.5813 -1.51074 -6.00898
upperback -2.44396 0.0889739 -2.09955
thorax 12.0907 -0.193957 1.10464
lowerneck -0.216468 -4.58023 -0.761788
upperneck -13.6502 -5.62427 5.17735
head -4.27189 -2.97347 2.07389
rclavicle 1.33186e-014 -1.74931e-014
rhumerus -34.9376 -34.2119 -70.6107
rradius 15.0296
rwrist 23.9539
rhand -9.43234 -52.9173
rfingers 7.12502
rthumb 16.5302 -442.233
lclavicle 1.33186e-014 -1.74931e-014
lhumerus -25.748 1.47149 85.834
lradius 29.0047
lwrist -0.0535907
lhand -26.0322 -14.4112
lfingers 7.12502
lthumb 0.514647 15.5679
rfemur -25.22 6.44493 17.9292
rtibia 15.5851
rfoot -22.9296 -15.4062
rtoes -39.3733
lfemur -27.85 -11.9657 -17.4794
ltibia 12.7272
lfoot -7.87866 -2.36457
ltoes -22.0877
391
root 8.81066 16.3214 8.93666 25.7422 4.69227 3.37571
lowerback -26.1306 -1.57615 -6.41015
upperback -2.4182 0.0907049 -2.16176
thorax 11.8795 -0.207326 1.26776
lowerneck -0.320631 -4.48545 -0.800421
upperneck -13.7628 -5.51925 4.95869
head -4.30092 -2.90952 2.00375
rclavicle -5.46658e-015 8.74653e-015
rhumerus -34.9429 -33.2217 -71.1663
rradius 15.569
rwrist 22.8528
rhand -9.14322 -52.8786
rfingers 7.12502
rthumb 16.8086 -442.171
lclavicle -5.46658e-015 8.74653e-015
lhumerus -25.4126 1.29728 85.9054
lradius 29.4879
lwrist -0.126657
lhand -26.2108 -13.9909
lfingers 7.12502
lthumb 0.342187 15.9886
rfemur -25.1121 6.52333 17.4408
rtibia 15.6452
rfoot -22.8681 -15.4194
rtoes -38.9043
lfemur -27.6876 -11.6706 -17.9854
ltibia 12.749
lfoot -7.75738 -2.65377
ltoes -21.7135
392
root 8.83066 16.3169 8.95897 25.9212 4.83463 3.07421
lowerback -26.6775 -1.52704 -5.92225
upperback -2.40664 0.0509225 -2.09324
thorax 12.188 -0.210061 1.04661
lowerneck -0.435544 -4.43757 -0.849923
upperneck -13.5841 -5.4721 4.8653
head -4.21611 -2.87737 1.96882
rclavicle -1.21259e-014 -1.03368e-014
rhumerus -35.0098 -33.3025 -71.08
rradius 15.4645
rwrist 22.7177
rhand -8.94303 -52.6535
rfingers 7.12502
rthumb 17.0013 -441.93
lclavicle -1.21259e-014 -1.03368e-014
lhumerus -25.1 1.14383 85.9444
lradius 29.8794
lwrist 0.129942
lhand -25.8698 -13.6145
lfingers 7.12502
lthumb 0.671518 16.3642
rfemur -25.0478 6.28269 17.823
rtibia 15.3863
rfoot -22.8063 -15.1007
rtoes -38.4026
lfemur -27.7073 -11.5935 -17.741
ltibia 12.5547
lfoot -7.71221 -2.78229
ltoes -21.6446
393
root 8.84367 16.3177 8.96313 25.9354 4.82038 2.97571
lowerback -26.7088 -1.51023 -5.79782
upperback -2.44072 0.0312675 -2.05247
thorax 12.166 -0.212994 1.01501
lowerneck -0.380779 -4.43405 -0.877433
upperneck -13.7071 -5.45921 4.91576
head -4.26985 -2.87317 1.99667
rclavicle 1.8487e-014 -1.35174e-014
rhumerus -35.017 -33.3423 -70.9715
rradius 15.2501
rwrist 22.4728
rhand -8.93639 -52.5494
rfingers 7.12502
rthumb 17.0077 -441.825
lclavicle 1.8487e-014 -1.35174e-014
lhumerus -24.9917 1.15741 85.9671
lradius 30.4102
lwrist 0.293958
lhand -25.5018 -13.8593
lfingers 7.12502
lthumb 1.02688 16.118
rfemur -25.0242 6.33879 17.8797
rtibia 15.2918
rfoot -22.7291 -15.1814
rtoes -38.7386
lfemur -27.6249 -11.6104 -17.6882
ltibia 12.4069
lfoot -7.63385 -2.65719
ltoes -22.0007
394
root 8.85445 16.3215 8.96427 25.8954 4.8557 2.80636
lowerback -26.7372 -1.49131 -5.65593
upperback -2.41251 0.00617366 -1.96785
thorax 12.2153 -0.22149 1.02027
lowerneck -0.434328 -4.3918 -0.917993
upperneck -13.7881 -5.40454 4.88636
head -4.29036 -2.84281 1.99314
rclavicle -1.11319e-014 -2.14687e-014
rhumerus -34.9112 -32.9465 -71.1918
rradius 15.3517
rwrist 21.7351
rhand -8.9195 -52.6375
rfingers 7.12502
rthumb 17.0239 -441.912
lclavicle -1.11319e-014 -2.14687e-014
lhumerus -24.8156 0.941175 86.095
lradius 30.859
lwrist 0.272236
lhand -25.9383 -14.1522
lfingers 7.12502
lthumb 0.605329 15.8267
rfemur -25.001 6.276 18.0675
rtibia 15.272
rfoot -22.6894 -15.2247
rtoes -39.3884
lfemur -27.455 -11.5979 -17.5446
ltibia 12.1555
lfoot -7.50849 -2.51863
ltoes -22.6701
395
root 8.86199 16.3278 8.96323 25.8836 4.91607 2.61574
lowerback -26.8252 -1.49992 -5.4874
upperback -2.37332 -0.0567742 -1.89154
thorax 12.3112 -0.246679 0.986035
lowerneck -0.441886 -4.35183 -0.954353
upperneck -13.8058 -5.3462 4.93299
head -4.29517 -2.81442 2.01396
rclavicle 2.14687e-014 6.36111e-015
rhumerus -34.9205 -32.8173 -71.368
rradius 15.5545
rwrist 21.3407
rhand -9.06684 -52.3732
rfingers 7.12502
rthumb 16.8821 -441.659
lclavicle 2.14687e-014 6.36111e-015
lhumerus -24.5318 0.593526 86.1981
lradius 31.2259
lwrist 0.171524
lhand -26.5476 -13.5537
lfingers 7.12502
lthumb 0.0168349 16.4261
rfemur -25.0084 6.32813 18.2583
rtibia 15.2462
rfoot -22.6582 -15.1943
rtoes -39.3019
lfemur -27.3956 -11.6585 -17.2932
ltibia 11.9854
lfoot -7.4309 -2.41521
ltoes -22.3748
396
root 8.8679 16.3348 8.96147 25.8788 4.92533 2.54394
lowerback -26.7998 -1.57657 -5.44627
upperback -2.41842 -0.178356 -1.85408
thorax 12.252 -0.299711 0.961609
lowerneck -0.349177 -4.29707 -0.959536
upperneck -13.7325 -5.27019 4.97409
head -4.28809 -2.77905 2.0274
rclavicle -1.44119e-014 -1.35174e-014
rhumerus -35.0284 -32.2111 -71.8046
rradius 15.9412
rwrist 20.5728
rhand -9.17825 -52.0842
rfingers 7.12502
rthumb 16.7748 -441.38
lclavicle -1.44119e-014 -1.35174e-014
lhumerus -24.393 0.56456 86.1288
lradius 31.6113
lwrist 0.111421
lhand -26.6673 -12.8777
lfingers 7.12502
lthumb -0.0987541 17.102
rfemur -24.9963 6.45949 18.2832
rtibia 15.1511
rfoot -22.5906 -15.2521
rtoes -39.201
lfemur -27.4037 -11.605 -17.2012
ltibia 11.9492
lfoot -7.36605 -2.48129
ltoes -21.0586
397
root 8.8724 16.3393 8.96505 25.8842 4.81958 2.59337
lowerback -26.6024 -1.64698 -5.58286
upperback -2.62345 -0.256456 -1.84157
thorax 11.9133 -0.333172 1.03196
lowerneck -0.148148 -4.20702 -0.980862
upperneck -13.6172 -5.16047 4.90308
head -4.29054 -2.72158 2.00702
rclavicle 2.59414e-014 8.74653e-015
rhumerus -35.3139 -30.9673 -72.3781
rradius 16.4746
rwrist 19.1685
rhand -9.06395 -52.3917
rfingers 7.12502
rthumb 16.8849 -441.678
lclavicle 2.59414e-014 8.74653e-015
lhumerus -24.5317 0.618927 86.0284
lradius 31.8842
lwrist 0.0439852
lhand -26.703 -12.99
lfingers 7.12502
lthumb -0.133228 16.9897
rfemur -24.9657 6.65251 18.1306
rtibia 15.0245
rfoot -22.4886 -15.3899
rtoes -39.1809
lfemur -27.3334 -11.4264 -17.3048
ltibia 11.8232
lfoot -7.2486 -2.53751
ltoes -20.2159
398
root 8.87313 16.3432 8.97351 25.8874 4.58233 2.63314
lowerback -26.3745 -1.65854 -5.80779
upperback -2.88032 -0.240516 -1.80898
thorax 11.4948 -0.324849 1.21099
lowerneck 0.120508 -4.14074 -1.04921
upperneck -13.6125 -5.08073 4.84024
head -4.34408 -2.67802 2.0046
rclavicle 1.09332e-014 6.36111e-015
rhumerus -35.6374 -29.6477 -72.8458
rradius 16.8851
rwrist 17.6453
rhand -9.00729 -52.6381
rfingers 7.12502
rthumb 16.9394 -441.919
lclavicle 1.09332e-014 6.36111e-015
lhumerus -24.7942 0.590187 86.0141
lradius 32.1168
lwrist 0.0252338
lhand -26.7799 -13.6015
lfingers 7.12502
lthumb -0.207477 16.3782
rfemur -24.9219 7.06136 17.9187
rtibia 14.8476
rfoot -22.3705 -15.6303
rtoes -39.1694
lfemur -27.2352 -11.3332 -17.3374
ltibia 11.6559
lfoot -7.19044 -2.35304
ltoes -20.3659
399
root 8.88558 16.344 8.97741 25.8973 4.61243 2.55085
lowerback -26.3342 -1.65113 -5.6944
upperback -2.96728 -0.276465 -1.76514
thorax 11.375 -0.333489 1.18497
lowerneck 0.111536 -4.11453 -1.09897
upperneck -13.3984 -5.0545 4.82853
head -4.2643 -2.66073 2.00087
rclavicle 3.18055e-015 -1.59028e-014
rhumerus -35.6938 -28.5726 -73.3847
rradius 17.3377
rwrist 16.2047
rhand -9.00581 -52.4236
rfingers 7.12502
rthumb 16.9408 -441.705
lclavicle 3.18055e-015 -1.59028e-014
lhumerus -24.8189 0.587163 86.0445
lradius 32.3952
lwrist 0.093323
lhand -26.8478 -14.1423
lfingers 7.12502
lthumb -0.27309 15.8372
rfemur -24.7319 6.94907 17.9969
rtibia 14.5024
rfoot -22.2007 -15.5849
rtoes -39.5145
lfemur -27.1994 -11.4293 -17.2809
ltibia 11.6153
lfoot -7.2158 -2.27255
ltoes -20.9567
400
root 8.89402 16.3435 8.98288 25.8556 4.46617 2.62646
lowerback -26.3909 -1.66319 -5.84932
upperback -2.93303 -0.242716 -1.75589
thorax 11.4429 -0.327356 1.29487
lowerneck 0.386511 -4.05884 -1.21065
upperneck -13.6641 -4.95324 5.03787
head -4.4113 -2.6188 2.10743
rclavicle -9.14409e-015 3.4191e-014
rhumerus -35.7833 -28.4034 -73.5238
rradius 17.8559
rwrist 15.7481
rhand -8.73629 -52.2713
rfingers 7.12502
rthumb 17.2003 -441.53
lclavicle -9.14409e-015 3.4191e-014
lhumerus -24.6769 0.563478 86.1065
lradius 32.524
lwrist 0.226949
lhand -27.01 -14.7861
lfingers 7.12502
lthumb -0.429745 15.1932
rfemur -24.569 6.95899 17.8474
rtibia 14.2879
rfoot -22.018 -15.5182
rtoes -39.6581
lfemur -27.0109 -11.384 -17.4788
ltibia 11.4657
lfoot -7.18923 -2.17617
ltoes -21.6115
401
root 8.89791 16.3454 8.98196 25.7733 4.26366 2.67272
lowerback -26.3108 -1.67782 -6.04922
upperback -2.90998 -0.213954 -1.72398
thorax 11.4258 -0.324418 1.45614
lowerneck 0.154322 -3.9868 -1.23663
upperneck -13.6028 -4.87644 4.8767
head -4.34898 -2.56963 2.04441
rclavicle -2.78299e-015 -2.78299e-014
rhumerus -36.0721 -29.1316 -73.1992
rradius 18.3967
rwrist 16.3058
rhand -8.2608 -52.3201
rfingers 7.12502
rthumb 17.6579 -441.538
lclavicle -2.78299e-015 -2.78299e-014
lhumerus -24.5099 0.535897 86.1457
lradius 32.6055
lwrist 0.48694
lhand -27.1035 -15.3251
lfingers 7.12502
lthumb -0.520071 14.654
rfemur -24.4836 7.09051 17.7141
rtibia 14.2134
rfoot -21.9127 -15.4842
rtoes -39.775
lfemur -26.799 -11.1996 -17.6216
ltibia 11.258
lfoot -7.07788 -2.14406
ltoes -21.4677
402
root 8.90006 16.3492 8.97813 25.6967 4.09783 2.58336
lowerback -26.2378 -1.67429 -6.08846
upperback -2.88041 -0.206383 -1.69892
thorax 11.4208 -0.324124 1.50993
lowerneck -0.0106189 -3.99229 -1.19039
upperneck -13.5649 -4.88604 4.84846
head -4.30419 -2.57388 2.02001
rclavicle 1.25234e-014 6.36111e-015
rhumerus -35.5086 -28.6054 -73.7596
rradius 18.0358
rwrist 15.3081
rhand -8.5732 -51.9143
rfingers 7.12502
rthumb 17.3572 -441.159
lclavicle 1.25234e-014 6.36111e-015
lhumerus -24.355 0.518518 86.0383
lradius 32.8588
lwrist 0.595952
lhand -27.1248 -15.4307
lfingers 7.12502
lthumb -0.540612 14.5484
rfemur -24.4026 7.41117 17.7093
rtibia 14.0782
rfoot -21.7919 -15.584
rtoes -39.9707
lfemur -26.6907 -10.9924 -17.5486
ltibia 11.1501
lfoot -7.01577 -2.16248
ltoes -20.9206
403
root 8.90559 16.3522 8.98039 25.6411 3.90844 2.57336
lowerback -26.3289 -1.68401 -6.14655
upperback -2.8025 -0.187909 -1.72672
thorax 11.558 -0.322382 1.51596
lowerneck 0.0539922 -3.98813 -1.13909
upperneck -13.4726 -4.86387 5.00441
head -4.28187 -2.57288 2.0624
rclavicle -3.8763e-015 -3.18055e-015
rhumerus -35.0892 -27.8511 -74.5009
rradius 18.044
rwrist 14.0566
rhand -9.30306 -51.458
rfingers 7.12502
rthumb 16.6547 -440.764
lclavicle -3.8763e-015 -3.18055e-015
lhumerus -24.1644 0.421096 85.8739
lradius 33.0636
lwrist 0.670375
lhand -27.2729 -15.5481
lfingers 7.12502
lthumb -0.683704 14.4305
rfemur -24.2974 7.62413 17.6174
rtibia 13.9068
rfoot -21.6453 -15.6118
rtoes -40.1662
lfemur -26.5562 -10.8981 -17.586
ltibia 11.0351
lfoot -7.03081 -2.08709
ltoes -21.2759
